PathFileType	4	(X/Y/Z)	4_coords_data.trc
DataRate	CameraRate	NumFrames	NumMarkers	Units	OrigDataRate	OrigDataStartFrame	OrigNumFrames
30.0	30.0	5	21	m	30.0	29	47
Frame#	Time	THUMB_TIP	THUMB_IP	THUMB_MCP	THUMB_CMC	INDEX_TIP	INDEX_DIP	INDEX_PIP	INDEX_MCP	MIDDLE_TIP	MIDDLE_DIP	MIDDLE_PIP	MIDDLE_MCP	RING_TIP	RING_DIP	RING_PIP	RING_MCP	PINKY_TIP	PINKY_DIP	PINKY_PIP	PINKY_MCP	WRIST
X1	Y1	Z1	X2	Y2	Z2	X3	Y3	Z3	X4	Y4	Z4	X5	Y5	Z5	X6	Y6	Z6	X7	Y7	Z7	X8	Y8	Z8	X9	Y9	Z9	X10	Y10	Z10	X11	Y11	Z11	X12	Y12	Z12	X13	Y13	Z13	X14	Y14	Z14	X15	Y15	Z15	X16	Y16	Z16	X17	Y17	Z17	X18	Y18	Z18	X19	Y19	Z19	X20	Y20	Z20	X21	Y21	Z21
28	0.9333333333333333	0.000661360025405883	-0.06420719909667968	1.0436600341796876	-0.019510099411010742	-0.05494770050048828	1.0631199951171875	-0.04006850051879883	-0.05543899917602539	1.0901500244140625	-0.056662101745605466	-0.027397199630737303	1.1042099609375	0.0007426649928092951	-0.05967959976196289	1.0146500244140626	-0.021302900314331054	-0.062101600646972656	1.015780029296875	-0.046946998596191405	-0.0640988006591797	1.0211599731445313	-0.08136139678955077	-0.05880609893798828	1.049280029296875	-0.014240099906921386	-0.04199869918823242	1.0436400146484375	-0.0209906005859375	-0.04175519943237305	1.021739990234375	-0.04752970123291016	-0.04157310104370117	1.0075	-0.08304309844970703	-0.03428739929199219	1.039300048828125	-0.01654490089416504	-0.02238279914855957	1.0468800048828124	-0.01961590003967285	-0.018439399719238282	1.025010009765625	-0.04202069854736328	-0.013962300300598144	1.0063900146484375	-0.07621099853515625	-0.01030210018157959	1.03827001953125	-0.012331399917602539	0.006295179843902588	1.0081699829101562	-0.029234600067138673	0.014283100128173827	1.007739990234375	-0.049374401092529295	0.019060800552368164	1.0126300048828125	-0.0652947998046875	0.012540599822998048	1.041030029296875	-0.09125240325927735	-0.00483892011642456	1.1231099853515625
29	0.9666666666666667	-0.001276110053062439	-0.07208670043945313	1.0473399658203124	-0.020309000015258788	-0.06129740142822265	1.066	-0.04155339813232422	-0.05962820053100586	1.0926400146484374	-0.05750189971923828	-0.02962310028076172	1.1056199951171874	0.0010791000127792349	-0.06275930023193359	1.017010009765625	-0.021036600112915037	-0.06518589782714844	1.01672998046875	-0.04681320190429687	-0.06666680145263672	1.0216099853515626	-0.080722900390625	-0.060296001434326174	1.050239990234375	-0.008533889770507813	-0.045925399780273435	1.03606005859375	-0.019827499389648437	-0.04503939819335938	1.0164299926757812	-0.04851919937133789	-0.04392200088500976	1.00647998046875	-0.08180319976806641	-0.035843700408935544	1.0398599853515624	-0.010434599876403808	-0.023759899139404298	1.0363499755859376	-0.01849340057373047	-0.01969820022583008	1.01597998046875	-0.044455398559570314	-0.015559200286865235	1.0033400268554689	-0.07497209930419922	-0.012141599655151367	1.0386600341796874	-0.010509900093078613	0.0037860100269317618	1.012280029296875	-0.027058000564575194	0.01210319995880127	1.0099299926757812	-0.04750490188598633	0.017072599411010744	1.01322998046875	-0.06512629699707032	0.01119499969482422	1.0410699462890625	-0.09159559631347657	-0.005641610145568848	1.12331005859375
30	1.0	-0.0031483099460601796	-0.08010160064697265	1.050780029296875	-0.021840499877929687	-0.06697519683837891	1.0692099609375	-0.04318899917602539	-0.06313249969482422	1.0946199951171875	-0.05881740188598633	-0.0318125	1.107469970703125	0.000654331028461456	-0.06658580017089843	1.0173699951171875	-0.021329000473022462	-0.06876200103759765	1.0168900146484374	-0.047100898742675784	-0.069527099609375	1.0218699951171875	-0.07987329864501953	-0.06186669921875	1.050949951171875	-0.004699379920959473	-0.049701900482177735	1.028550048828125	-0.019803499221801756	-0.04821360015869141	1.0115700073242186	-0.0495901985168457	-0.04619660186767578	1.0054299926757813	-0.0806083984375	-0.03739860153198242	1.0401099853515625	-0.0068428702354431156	-0.026052400588989257	1.0267900390625	-0.01922360038757324	-0.021621900558471678	1.0089299926757813	-0.046910400390625	-0.01759659957885742	1.0013200073242188	-0.07342880249023437	-0.01402929973602295	1.0388199462890626	-0.009361359596252441	0.0017043900489807128	1.0130599975585937	-0.026041599273681642	0.009971440315246582	1.01027001953125	-0.0466713981628418	0.01476729965209961	1.0134600219726562	-0.06432649993896485	0.009449370384216308	1.04125	-0.0918917007446289	-0.006522379875183106	1.124010009765625
31	1.0333333333333334	-0.005462069988250732	-0.08706340026855469	1.0543699951171874	-0.02345599937438965	-0.07250009918212891	1.0715	-0.045303901672363284	-0.06618650054931641	1.096280029296875	-0.059899200439453126	-0.033876800537109376	1.10818994140625	0.000656536996364593	-0.06963580322265625	1.0157100219726563	-0.02168869972229004	-0.07142949676513671	1.0158699951171875	-0.04708560180664063	-0.07138369750976563	1.0214000244140624	-0.0788093032836914	-0.06283340072631836	1.050969970703125	-0.000868448972702026	-0.05229779815673828	1.0196900024414062	-0.019715299606323244	-0.05015420150756836	1.0066500244140626	-0.050080699920654295	-0.04741799926757812	1.0042999877929688	-0.07926799774169922	-0.03853359985351563	1.0405699462890625	-0.003965770006179809	-0.027272100448608397	1.0172000122070313	-0.02020949935913086	-0.022461999893188478	1.0028800048828126	-0.04874739837646484	-0.018554899215698244	0.999677001953125	-0.07182980346679688	-0.0153302001953125	1.03868994140625	-0.008758910179138183	0.00180085003376007	1.011510009765625	-0.02589430046081543	0.009563220024108888	1.0093800048828125	-0.04646269989013672	0.013731599807739258	1.013260009765625	-0.06340430068969727	0.008249090194702149	1.0413599853515625	-0.0924572982788086	-0.007406599998474121	1.1244000244140624
32	1.0666666666666667	-0.008184240341186524	-0.09298889923095703	1.05677001953125	-0.025516199111938476	-0.0764822998046875	1.07322998046875	-0.04754010009765625	-0.06843450164794922	1.0973699951171876	-0.0608656005859375	-0.03535129928588867	1.1085999755859375	0.00039976599812507603	-0.07230740356445313	1.0115999755859375	-0.0220713005065918	-0.07315139770507813	1.01347998046875	-0.04699319839477539	-0.07221369934082031	1.020530029296875	-0.07749019622802734	-0.06322269821166993	1.050800048828125	0.0021000199317932127	-0.05361489868164063	1.00897998046875	-0.019810600280761717	-0.05096910095214844	1.0013300170898438	-0.05027030181884766	-0.04745439910888672	1.00327001953125	-0.07767880249023437	-0.03880559921264649	1.0402099609375	-0.0007341809868812562	-0.02724869918823242	1.0068200073242188	-0.020673799514770507	-0.022230899810791016	0.9976259765625	-0.04933169937133789	-0.018440000534057616	0.998864013671875	-0.07021479797363281	-0.01582299995422363	1.038550048828125	-0.007960130214691162	0.00352305006980896	1.008739990234375	-0.02571299934387207	0.01045259952545166	1.008	-0.046092800140380856	0.013768199920654298	1.0130900268554688	-0.06238359832763672	0.007811230182647705	1.041530029296875	-0.09293460083007812	-0.007898950099945068	1.124260009765625
